<?xml version="1.0" encoding="UTF-8" standalone="no"?>
<svg
   id="Livello_1"
   width="845.80792"
   height="633.80634"
   viewBox="0 0 845.80788 633.80634"
   version="1.1"
   sodipodi:docname="logo_backbone.svg"
   inkscape:version="1.3.2 (091e20e, 2023-11-25, custom)"
   xml:space="preserve"
   inkscape:export-filename="logo_backbone.png"
   inkscape:export-xdpi="96"
   inkscape:export-ydpi="96"
   xmlns:inkscape="http://www.inkscape.org/namespaces/inkscape"
   xmlns:sodipodi="http://sodipodi.sourceforge.net/DTD/sodipodi-0.dtd"
   xmlns="http://www.w3.org/2000/svg"
   xmlns:svg="http://www.w3.org/2000/svg"><sodipodi:namedview
     id="namedview50"
     pagecolor="#ffffff"
     bordercolor="#000000"
     borderopacity="0.25"
     inkscape:showpageshadow="2"
     inkscape:pageopacity="0.0"
     inkscape:pagecheckerboard="0"
     inkscape:deskcolor="#d1d1d1"
     showgrid="false"
     inkscape:zoom="0.3535534"
     inkscape:cx="192.33304"
     inkscape:cy="550.12905"
     inkscape:window-width="1920"
     inkscape:window-height="1001"
     inkscape:window-x="0"
     inkscape:window-y="0"
     inkscape:window-maximized="0"
     inkscape:current-layer="layer1"
     inkscape:export-bgcolor="#ffffff00" /><defs
     id="defs5"><clipPath
       id="clippath"><path
         d="M 438.4697,442.0799 H 216.8471 V 48.0842 c 0,0 221.6226,0 221.6226,0 z m 263.0003,0 H 479.8474 V 144.5125 c 0,0 221.6226,0 221.6226,0 z m 263.0003,0 H 742.8477 V 48.0842 c 0,0 221.6226,0 221.6226,0 z"
         style="fill:none"
         id="path2" /></clipPath><clipPath
       id="clippath-1"><path
         d="M 438.4697,442.0799 H 216.8471 V 48.0842 c 0,0 221.6226,0 221.6226,0 z m 263.0003,0 H 479.8474 V 144.5125 c 0,0 221.6226,0 221.6226,0 z m 263.0003,0 H 742.8477 V 48.0842 c 0,0 221.6226,0 221.6226,0 z"
         style="fill:none"
         id="path2-8" /></clipPath><clipPath
       id="clippath-4"><path
         d="M 438.4697,442.0799 H 216.8471 V 48.0842 c 0,0 221.6226,0 221.6226,0 z m 263.0003,0 H 479.8474 V 144.5125 c 0,0 221.6226,0 221.6226,0 z m 263.0003,0 H 742.8477 V 48.0842 c 0,0 221.6226,0 221.6226,0 z"
         style="fill:none"
         id="path2-0" /></clipPath></defs><g
     inkscape:groupmode="layer"
     id="layer1"
     inkscape:label="BB_Logo"
     style="display:inline"
     transform="translate(-1067.6403,-413.39156)"><text
       xml:space="preserve"
       style="font-style:normal;font-variant:normal;font-weight:normal;font-stretch:normal;font-size:181.382px;line-height:normal;font-family:sans-serif;font-variant-ligatures:normal;font-variant-position:normal;font-variant-caps:normal;font-variant-numeric:normal;font-variant-alternates:normal;font-variant-east-asian:normal;font-feature-settings:normal;font-variation-settings:normal;text-indent:0;text-align:start;text-decoration-line:none;text-decoration-style:solid;text-decoration-color:#000000;letter-spacing:2.1px;word-spacing:normal;text-transform:none;writing-mode:lr-tb;direction:ltr;text-orientation:mixed;dominant-baseline:auto;baseline-shift:baseline;text-anchor:start;white-space:normal;shape-padding:0;shape-margin:0;display:none;opacity:1;vector-effect:none;fill:#ffe900;fill-opacity:0;stroke:none;stroke-width:4.86608;stroke-linecap:butt;stroke-linejoin:miter;stroke-miterlimit:4;stroke-dasharray:none;stroke-dashoffset:0;stroke-opacity:1;-inkscape-stroke:none;stop-color:#000000;stop-opacity:1"
       x="328.99042"
       y="773.54523"
       id="text11464"
       transform="translate(161.67383,48.031937)"><tspan
         sodipodi:role="line"
         x="0"
         y="0"
         id="tspan11466"
         style="font-style:normal;font-variant:normal;font-weight:600;font-stretch:normal;font-size:181.382px;font-family:Oceanwide;-inkscape-font-specification:'Oceanwide, Semi-Bold';font-variant-ligatures:normal;font-variant-caps:normal;font-variant-numeric:normal;font-variant-east-asian:normal;letter-spacing:2.1px;fill:#000000;fill-opacity:1;stroke-width:4.86608">B<tspan
   style="font-style:normal;font-variant:normal;font-weight:bold;font-stretch:normal;font-size:181.382px;font-family:Gadugi;-inkscape-font-specification:'Gadugi, Bold';font-variant-ligatures:normal;font-variant-caps:normal;font-variant-numeric:normal;font-variant-east-asian:normal;letter-spacing:2.1px"
   id="tspan1">a</tspan>ckbone</tspan></text><g
       id="text11464-6"
       style="font-size:181.382px;letter-spacing:2.1px;baseline-shift:baseline;fill:#ffe900;fill-opacity:0;stroke-width:4.86608"
       aria-label="Backbone"
       transform="translate(567,222.9)"
       inkscape:export-filename="MOPO_logo_backbone_teams.jpg"
       inkscape:export-xdpi="20.210529"
       inkscape:export-ydpi="20.210529"><path
         style="font-weight:600;font-family:Oceanwide;-inkscape-font-specification:'Oceanwide, Semi-Bold';fill:#000000;fill-opacity:1"
         d="m 500.64026,821.57715 h 52.05663 c 27.02592,0 46.61518,-15.41747 46.61518,-36.45778 0,-14.1478 -8.88772,-25.75625 -23.94243,-31.19771 v -0.72553 c 13.78503,-6.34837 21.2217,-16.50576 21.2217,-29.2025 0,-20.49617 -19.2265,-34.82534 -46.61518,-34.82534 h -49.3359 z m 25.75624,-77.45012 v -33.1929 h 20.49617 c 13.78503,0 22.30998,6.34837 22.30998,16.68714 0,10.15739 -8.52495,16.50576 -22.30998,16.50576 z m 0,55.5029 v -34.64397 h 21.40308 c 14.87332,0 24.1238,6.52976 24.1238,17.23129 0,10.88292 -9.25048,17.41268 -24.1238,17.41268 z"
         id="path1" /><path
         style="font-weight:bold;font-family:Gadugi;-inkscape-font-specification:'Gadugi, Bold';fill:#000000;fill-opacity:1"
         d="m 694.09042,821.57715 h -26.48106 v -13.01912 h -0.35427 q -9.12224,15.23325 -27.01245,15.23325 -13.19625,0 -20.81288,-7.43949 -7.52806,-7.52806 -7.52806,-20.01579 0,-26.3925 31.2636,-30.46651 l 24.62119,-3.27692 q 0,-14.87899 -16.11891,-14.87899 -16.20748,0 -30.82077,9.65363 v -21.07857 q 5.84532,-3.01123 15.94178,-5.31393 10.18502,-2.3027 18.51017,-2.3027 38.79166,0 38.79166,38.70309 z m -26.30393,-36.84322 v -6.11102 l -16.47317,2.12557 q -13.63908,1.77131 -13.63908,12.3106 0,4.78253 3.27692,7.88232 3.36549,3.01123 9.03368,3.01123 7.88232,0 12.84198,-5.40249 4.95967,-5.49106 4.95967,-13.81621 z"
         id="path4" /><path
         style="font-weight:600;font-family:Oceanwide;-inkscape-font-specification:'Oceanwide, Semi-Bold';fill:#000000;fill-opacity:1"
         d="m 809.03341,795.45814 -22.1286,-10.52016 c -3.44626,10.33878 -13.0595,17.23129 -24.12381,17.23129 -14.51056,0 -25.93762,-11.78983 -25.93762,-26.84453 0,-15.05471 11.42706,-26.84454 25.93762,-26.84454 9.97601,0 18.50097,5.44146 22.49137,14.1478 l 21.40308,-11.78983 C 798.33188,735.60208 781.64473,726.3516 762.781,726.3516 c -28.47697,0 -51.14972,21.76584 -51.14972,48.97314 0,27.2073 22.67275,48.97314 51.3311,48.97314 20.49617,0 38.45299,-11.24569 46.07103,-28.83974 z m 12.98301,26.11901 h 23.94243 v -43.16892 l 32.28599,43.16892 h 30.2908 l -38.99713,-50.78696 37.36469,-41.71786 h -30.65356 l -30.29079,34.46258 v -74.36662 h -23.94243 z m 150.10774,2.72073 c 26.66316,0 48.06624,-21.76584 48.06624,-48.97314 0,-27.2073 -21.40308,-48.97314 -48.06624,-48.97314 -10.88292,0 -21.04031,3.62764 -29.02112,9.97601 v -47.15932 h -23.94242 v 132.40886 h 22.30999 v -8.52496 c 8.34357,7.0739 19.04511,11.24569 30.65355,11.24569 z m -3.08349,-22.12861 c -14.32918,0 -25.93763,-11.78983 -25.93763,-26.84453 0,-15.23609 11.60845,-26.84454 25.93763,-26.84454 14.32918,0 25.93763,11.60845 25.93763,26.84454 0,15.0547 -11.60845,26.84453 -25.93763,26.84453 z m 63.22563,-26.84453 c 0,27.2073 22.6727,48.97314 51.1497,48.97314 28.6583,0 51.3311,-21.76584 51.3311,-48.97314 0,-27.38869 -22.6728,-48.97314 -51.3311,-48.97314 -28.477,0 -51.1497,21.76584 -51.1497,48.97314 z m 25.2121,0 c 0,-15.05471 11.427,-26.84454 25.9376,-26.84454 14.6919,0 25.9376,11.78983 25.9376,26.84454 0,15.0547 -11.2457,26.84453 -25.9376,26.84453 -14.5106,0 -25.9376,-11.78983 -25.9376,-26.84453 z m 92.791,46.25241 h 23.9424 v -55.14013 c 0,-10.15739 8.1622,-18.31958 18.501,-18.31958 10.3388,0 17.5941,8.16219 17.5941,19.04511 v 54.4146 h 23.9424 v -58.40501 c 0,-21.94722 -15.0547,-37.18331 -36.6392,-37.18331 -10.5201,0 -19.4079,3.44626 -25.0307,9.61325 v -6.52975 h -22.31 z m 193.0953,-16.143 -19.0451,-14.1478 c -6.7112,7.98081 -13.4223,11.42707 -22.8542,11.42707 -13.785,0 -23.0355,-7.25528 -25.3934,-18.50096 h 69.832 c 0.3628,-3.44626 0.5442,-6.89252 0.5442,-9.61325 0,-27.38868 -19.7707,-48.24761 -46.978,-48.24761 -27.9328,0 -49.6986,21.58445 -49.6986,49.3359 0,27.93283 22.1286,48.61038 52.238,48.61038 17.2313,0 31.9232,-6.71114 41.3551,-18.86373 z m -66.5672,-40.2668 c 2.9021,-10.1574 10.3388,-17.59406 22.4914,-17.59406 11.7898,0 20.1334,7.0739 21.5844,17.59406 z"
         id="path5" /></g><g
       id="g1"
       inkscape:label="Left_pillar"
       transform="translate(76.500011,15.399996)"><rect
         style="fill:#194c7f;fill-opacity:1"
         id="rect415"
         width="284.48105"
         height="392.97098"
         x="153.32468"
         y="48.991138"
         clip-path="url(#clippath)"
         transform="matrix(1.0135772,0,0,1,820.05581,350)" /><ellipse
         style="fill:#31d9cc;fill-opacity:1;stroke-width:0.984549"
         id="path1386"
         cx="1151.0035"
         cy="564.27411"
         rx="54.375"
         ry="54.75" /><rect
         style="fill:#31d9cc;fill-opacity:1;stroke-width:0.863665"
         id="rect1578"
         width="14.49567"
         height="89.533142"
         x="1143.6473"
         y="617.4975" /><rect
         style="display:inline;fill:#31d9cc;fill-opacity:1;stroke-width:0.983677"
         id="rect1578-1"
         width="14.652693"
         height="114.90002"
         x="1144.413"
         y="399.05365" /><rect
         style="fill:#31d9cc;fill-opacity:1;stroke-width:1.39061"
         id="rect2300"
         width="223.96017"
         height="14.974969"
         x="1039.8512"
         y="705.6496" /><rect
         style="display:inline;fill:#31d9cc;fill-opacity:1;stroke-width:0.972343"
         id="rect2300-1-2-0-0"
         width="60.463959"
         height="14.745119"
         x="1203.3398"
         y="556.24335" /></g><g
       id="g2"
       inkscape:label="middle_pillar"
       transform="translate(567,222.9)"><rect
         style="fill:#194c7f;fill-opacity:1;stroke-width:1.0001;stroke-dasharray:none"
         id="rect415-9"
         width="219.98103"
         height="448.82141"
         x="217.82468"
         y="-6.8592086"
         clip-path="url(#clippath-1)"
         transform="matrix(1.0176792,0,0,0.75561699,593.48634,250.34721)" /><ellipse
         style="fill:#31d9cc;fill-opacity:1;stroke-width:0.983004"
         id="path1386-6"
         cx="928.40625"
         cy="505.48746"
         rx="54.432426"
         ry="54.520813" /><rect
         style="display:inline;fill:#31d9cc;fill-opacity:1;stroke-width:0.980303"
         id="rect2300-1"
         width="60.469009"
         height="14.678365"
         x="815.33484"
         y="497.80536" /><rect
         style="display:inline;fill:#31d9cc;fill-opacity:1;stroke-width:1.28825"
         id="rect2300-1-2"
         width="104.41553"
         height="14.987787"
         x="934.65607"
         y="402.81485" /><path
         style="fill:none;fill-opacity:0.439935;stroke:#31d9cc;stroke-width:15.1;stroke-linejoin:round;stroke-dasharray:none;stroke-opacity:1"
         d="m 814.98554,357.00417 h 112.60675 v 97.75751"
         id="path3"
         sodipodi:nodetypes="ccc" /></g><g
       id="g3"
       inkscape:label="right_pillar"
       transform="translate(1356.1312,222.9)"><rect
         style="fill:#194c7f;fill-opacity:1"
         id="rect415-7"
         width="220.98103"
         height="393.47098"
         x="216.82468"
         y="48.491138"
         clip-path="url(#clippath-4)"
         transform="matrix(1.0158401,0,0,0.99904694,70.85886,142.42121)" /><ellipse
         style="fill:#31d9cc;fill-opacity:1;stroke-width:0.979016"
         id="path1386-9"
         cx="403.95233"
         cy="409.63864"
         rx="54.34404"
         ry="54.167259" /><rect
         style="display:inline;fill:#31d9cc;fill-opacity:1;stroke-width:0.978892"
         id="rect2300-1-2-9"
         width="89.853859"
         height="14.453649"
         x="291.10345"
         y="402.68549" /><rect
         style="display:inline;fill:#31d9cc;fill-opacity:1;stroke-width:0.983548"
         id="rect2300-1-2-9-5"
         width="188.97887"
         height="14.765309"
         x="-379.47043"
         y="396.1933"
         transform="rotate(-90)" /><rect
         style="display:inline;fill:#31d9cc;fill-opacity:1;stroke-width:0.847849"
         id="rect2300-1-2-9-5-5"
         width="135.69833"
         height="15.280214"
         x="-583.98059"
         y="395.29364"
         transform="rotate(-90)" /></g><rect
       style="display:none;fill:none;stroke:none;stroke-width:4.21347;stroke-linecap:round;stroke-linejoin:round;paint-order:markers fill stroke"
       id="rect1"
       width="911.99994"
       height="912"
       x="1036.6403"
       y="270.49155"
       ry="5.9188538" /></g></svg>
