<?xml version="1.0" encoding="UTF-8" standalone="no"?>
<svg
   id="Livello_1"
   width="812.28418"
   height="592.20129"
   viewBox="0 0 812.28415 592.20131"
   version="1.1"
   sodipodi:docname="logo_backbone.svg"
   inkscape:version="1.2.2 (732a01da63, 2022-12-09)"
   xml:space="preserve"
   inkscape:export-filename="MOPO_logo_spineopt.png"
   inkscape:export-xdpi="96"
   inkscape:export-ydpi="96"
   xmlns:inkscape="http://www.inkscape.org/namespaces/inkscape"
   xmlns:sodipodi="http://sodipodi.sourceforge.net/DTD/sodipodi-0.dtd"
   xmlns="http://www.w3.org/2000/svg"
   xmlns:svg="http://www.w3.org/2000/svg"><sodipodi:namedview
     id="namedview50"
     pagecolor="#ffffff"
     bordercolor="#000000"
     borderopacity="0.25"
     inkscape:showpageshadow="2"
     inkscape:pageopacity="0.0"
     inkscape:pagecheckerboard="0"
     inkscape:deskcolor="#d1d1d1"
     showgrid="false"
     inkscape:zoom="0.70710678"
     inkscape:cx="379.71634"
     inkscape:cy="325.26912"
     inkscape:window-width="1920"
     inkscape:window-height="1017"
     inkscape:window-x="1912"
     inkscape:window-y="108"
     inkscape:window-maximized="1"
     inkscape:current-layer="layer1" /><defs
     id="defs5"><clipPath
       id="clippath"><path
         d="M 438.4697,442.0799 H 216.8471 V 48.0842 c 0,0 221.6226,0 221.6226,0 z m 263.0003,0 H 479.8474 V 144.5125 c 0,0 221.6226,0 221.6226,0 z m 263.0003,0 H 742.8477 V 48.0842 c 0,0 221.6226,0 221.6226,0 z"
         style="fill:none"
         id="path2" /></clipPath><clipPath
       id="clippath-1"><path
         d="M 438.4697,442.0799 H 216.8471 V 48.0842 c 0,0 221.6226,0 221.6226,0 z m 263.0003,0 H 479.8474 V 144.5125 c 0,0 221.6226,0 221.6226,0 z m 263.0003,0 H 742.8477 V 48.0842 c 0,0 221.6226,0 221.6226,0 z"
         style="fill:none"
         id="path2-8" /></clipPath><clipPath
       id="clippath-4"><path
         d="M 438.4697,442.0799 H 216.8471 V 48.0842 c 0,0 221.6226,0 221.6226,0 z m 263.0003,0 H 479.8474 V 144.5125 c 0,0 221.6226,0 221.6226,0 z m 263.0003,0 H 742.8477 V 48.0842 c 0,0 221.6226,0 221.6226,0 z"
         style="fill:none"
         id="path2-0" /></clipPath></defs><g
     inkscape:groupmode="layer"
     id="layer1"
     inkscape:label="Spine_Logo"
     style="display:inline"
     transform="translate(-519.94523,-184.11656)"><rect
       style="fill:#1f3b6a;fill-opacity:1"
       id="rect415"
       width="220.98103"
       height="393.47098"
       x="216.82468"
       y="48.491138"
       clip-path="url(#clippath)"
       transform="translate(338,142)" /><rect
       style="fill:#1f3b6a;fill-opacity:1"
       id="rect415-9"
       width="219.98103"
       height="448.82141"
       x="217.82468"
       y="-6.8592086"
       clip-path="url(#clippath-1)"
       transform="matrix(1,0,0,0.87051255,601.22639,199.92126)" /><rect
       style="fill:#1f3b6a;fill-opacity:1"
       id="rect415-7"
       width="220.98103"
       height="393.47098"
       x="216.82468"
       y="48.491138"
       clip-path="url(#clippath-4)"
       transform="translate(863.4249,142)" /><circle
       style="fill:#2ad1c1;fill-opacity:1;stroke-width:0.766892"
       id="path1386"
       cx="670.1286"
       cy="340.02414"
       r="42.5" /><circle
       style="fill:#2ad1c1;fill-opacity:1;stroke-width:0.766892"
       id="path1386-6"
       cx="930.61597"
       cy="507.25522"
       r="42.5" /><circle
       style="fill:#2ad1c1;fill-opacity:1;stroke-width:0.766892"
       id="path1386-9"
       cx="1193.2603"
       cy="409.63864"
       r="42.5" /><rect
       style="fill:#2ad1c1;fill-opacity:1;stroke-width:1.13649"
       id="rect1578"
       width="14.49567"
       height="155.03314"
       x="662.6474"
       y="346.7475" /><rect
       style="display:inline;fill:#2ad1c1;fill-opacity:1;stroke-width:1.1488"
       id="rect1578-1"
       width="14.652693"
       height="156.71252"
       x="663.41302"
       y="190.49115" /><rect
       style="fill:#2ad1c1;fill-opacity:1;stroke-width:1.38127"
       id="rect2300"
       width="220.96017"
       height="14.974969"
       x="554.8512"
       y="499.39963" /><rect
       style="display:inline;fill:#2ad1c1;fill-opacity:1;stroke-width:1.08892"
       id="rect2300-1"
       width="74.611145"
       height="14.678365"
       x="819.04712"
       y="499.57312" /><rect
       style="display:inline;fill:#2ad1c1;fill-opacity:1;stroke-width:1.27298"
       id="rect2300-1-2"
       width="103.17809"
       height="14.810165"
       x="935.89349"
       y="402.90366" /><rect
       style="display:inline;fill:#2ad1c1;fill-opacity:1;stroke-width:1.33425"
       id="rect2300-1-2-0"
       width="113.4059"
       height="14.802806"
       x="819.04211"
       y="326.89758" /><rect
       style="display:inline;fill:#2ad1c1;fill-opacity:1;stroke-width:1.32905"
       id="rect2300-1-2-0-0"
       width="112.96396"
       height="14.745119"
       x="662.83984"
       y="326.99335" /><rect
       style="display:inline;fill:#2ad1c1;fill-opacity:1;stroke-width:0.978892"
       id="rect2300-1-2-9"
       width="89.853859"
       height="14.453649"
       x="1080.2346"
       y="402.68549" /><rect
       style="display:inline;fill:#2ad1c1;fill-opacity:1;stroke-width:0.983548"
       id="rect2300-1-2-9-5"
       width="188.97887"
       height="14.765309"
       x="-379.47043"
       y="1185.3245"
       transform="rotate(-90)" /><rect
       style="display:inline;fill:#2ad1c1;fill-opacity:1;stroke-width:0.874485"
       id="rect2300-1-2-9-5-8"
       width="149.39192"
       height="14.765309"
       x="-476.25848"
       y="921.8042"
       transform="rotate(-90)" /><rect
       style="display:inline;fill:#2ad1c1;fill-opacity:1;stroke-width:1.03487"
       id="rect2300-1-2-9-5-5"
       width="202.16637"
       height="15.280214"
       x="-583.98059"
       y="1184.4248"
       transform="rotate(-90)" /></g><text
     xml:space="preserve"
     style="font-style:normal;font-variant:normal;font-weight:normal;font-stretch:normal;font-size:37.3333px;line-height:normal;font-family:sans-serif;font-variant-ligatures:normal;font-variant-position:normal;font-variant-caps:normal;font-variant-numeric:normal;font-variant-alternates:normal;font-variant-east-asian:normal;font-feature-settings:normal;font-variation-settings:normal;text-indent:0;text-align:start;text-decoration-line:none;text-decoration-style:solid;text-decoration-color:#000000;letter-spacing:normal;word-spacing:normal;text-transform:none;writing-mode:lr-tb;direction:ltr;text-orientation:mixed;dominant-baseline:auto;baseline-shift:baseline;text-anchor:start;white-space:normal;shape-padding:0;shape-margin:0;inline-size:0;opacity:1;vector-effect:none;fill:#ffe900;fill-opacity:0;stroke:none;stroke-width:1.00157;stroke-linecap:butt;stroke-linejoin:miter;stroke-miterlimit:4;stroke-dasharray:none;stroke-dashoffset:0;stroke-opacity:1;-inkscape-stroke:none;stop-color:#000000;stop-opacity:1"
     x="8"
     y="-1268"
     id="text11464"
     transform="matrix(4.091793,0,0,4.091793,-46.906427,5777.9842)"><tspan
       sodipodi:role="line"
       x="8"
       y="-1268"
       id="tspan11466"
       style="font-weight:bold;font-size:37.3333px;fill:#000000;fill-opacity:1">Backbone</tspan></text></svg>
