<?xml version="1.0" encoding="UTF-8" standalone="no"?>
<svg
   id="Livello_1"
   width="809.87018"
   height="669.56836"
   viewBox="0 0 809.87014 669.56836"
   version="1.1"
   sodipodi:docname="MOPO_logo_spineopt.svg"
   inkscape:version="1.2.2 (732a01da63, 2022-12-09)"
   xml:space="preserve"
   inkscape:export-filename="MOPO_logo_spineopt.png"
   inkscape:export-xdpi="96"
   inkscape:export-ydpi="96"
   xmlns:inkscape="http://www.inkscape.org/namespaces/inkscape"
   xmlns:sodipodi="http://sodipodi.sourceforge.net/DTD/sodipodi-0.dtd"
   xmlns:xlink="http://www.w3.org/1999/xlink"
   xmlns="http://www.w3.org/2000/svg"
   xmlns:svg="http://www.w3.org/2000/svg"><sodipodi:namedview
     id="namedview50"
     pagecolor="#ffffff"
     bordercolor="#000000"
     borderopacity="0.25"
     inkscape:showpageshadow="2"
     inkscape:pageopacity="0.0"
     inkscape:pagecheckerboard="0"
     inkscape:deskcolor="#d1d1d1"
     showgrid="false"
     inkscape:zoom="0.5"
     inkscape:cx="93"
     inkscape:cy="306"
     inkscape:window-width="1920"
     inkscape:window-height="1017"
     inkscape:window-x="1912"
     inkscape:window-y="108"
     inkscape:window-maximized="1"
     inkscape:current-layer="Livello_1" /><defs
     id="defs5"><clipPath
       id="clippath"><path
         d="M 438.4697,442.0799 H 216.8471 V 48.0842 c 0,0 221.6226,0 221.6226,0 z m 263.0003,0 H 479.8474 V 144.5125 c 0,0 221.6226,0 221.6226,0 z m 263.0003,0 H 742.8477 V 48.0842 c 0,0 221.6226,0 221.6226,0 z"
         style="fill:none"
         id="path2" /></clipPath><clipPath
       id="clippath-1"><path
         d="M 438.4697,442.0799 H 216.8471 V 48.0842 c 0,0 221.6226,0 221.6226,0 z m 263.0003,0 H 479.8474 V 144.5125 c 0,0 221.6226,0 221.6226,0 z m 263.0003,0 H 742.8477 V 48.0842 c 0,0 221.6226,0 221.6226,0 z"
         style="fill:none"
         id="path2-8" /></clipPath><clipPath
       id="clippath-4"><path
         d="M 438.4697,442.0799 H 216.8471 V 48.0842 c 0,0 221.6226,0 221.6226,0 z m 263.0003,0 H 479.8474 V 144.5125 c 0,0 221.6226,0 221.6226,0 z m 263.0003,0 H 742.8477 V 48.0842 c 0,0 221.6226,0 221.6226,0 z"
         style="fill:none"
         id="path2-0" /></clipPath></defs><g
     inkscape:groupmode="layer"
     id="layer1"
     inkscape:label="Spine_Logo"
     style="display:inline"
     transform="translate(-519.06495,-190.49114)"><rect
       style="fill:#1b4ac2;fill-opacity:1"
       id="rect415"
       width="220.98103"
       height="393.47098"
       x="216.82468"
       y="48.491138"
       clip-path="url(#clippath)"
       transform="translate(338,142)" /><rect
       style="fill:#1b4ac2;fill-opacity:1"
       id="rect415-9"
       width="220.98103"
       height="393.47098"
       x="216.82468"
       y="48.491138"
       clip-path="url(#clippath-1)"
       transform="matrix(1,0,0,0.75880283,601.22639,249.29273)" /><rect
       style="fill:#1b4ac2;fill-opacity:1"
       id="rect415-7"
       width="220.98103"
       height="393.47098"
       x="216.82468"
       y="48.491138"
       clip-path="url(#clippath-4)"
       transform="translate(863.4249,142)" /><circle
       style="fill:#91e087;fill-opacity:1;stroke-width:0.975"
       id="path1386"
       cx="665.66156"
       cy="298.55713"
       r="54.032986" /><circle
       style="fill:#91e087;fill-opacity:1;stroke-width:0.975"
       id="path1386-6"
       cx="928.14893"
       cy="470.78821"
       r="54.032986" /><circle
       style="fill:#91e087;fill-opacity:1;stroke-width:0.975"
       id="path1386-9"
       cx="1189.7932"
       cy="298.17163"
       r="54.032986" /><rect
       style="fill:#91e087;fill-opacity:1"
       id="rect1578"
       width="14.49567"
       height="120.03135"
       x="658.40479"
       y="345.68683" /><rect
       style="fill:#91e087;fill-opacity:1"
       id="rect2300"
       width="117.45741"
       height="14.765309"
       x="658.3869"
       y="451.69196" /><rect
       style="display:inline;fill:#91e087;fill-opacity:1"
       id="rect2300-1"
       width="62.553085"
       height="14.765309"
       x="818.10516"
       y="451.52963" /><rect
       style="display:inline;fill:#91e087;fill-opacity:1"
       id="rect2300-1-2"
       width="63.865585"
       height="14.765309"
       x="975.14349"
       y="451.17609" /><rect
       style="display:inline;fill:#91e087;fill-opacity:1"
       id="rect2300-1-2-9"
       width="116.79136"
       height="14.765309"
       x="1080.2971"
       y="451.52966" /><rect
       style="display:inline;fill:#91e087;fill-opacity:1"
       id="rect2300-1-2-9-5"
       width="118.35386"
       height="14.765309"
       x="-466.47043"
       y="1182.3245"
       transform="rotate(-90)" /></g><a
     id="a515"
     xlink:href="https://github.com/Spine-tools/SpineOpt.jl"
     xlink:show="new"
     transform="translate(-519.06495,-190.49114)"><g
       id="g473"
       onclick="https://github.com/Spine-tools/SpineOpt.jl"><path
         d="m 519.06495,786.2803 23.6299,-7.9902 c 5.0996,18.6992 17.1699,24.3105 28.5596,24.3105 11.7295,0 22.0996,-5.6113 22.0996,-16.3203 0,-11.2207 -11.2197,-14.791 -22.4395,-18.3594 l -11.9004,-3.5703 c -13.0898,-3.9102 -35.3594,-12.75 -35.3594,-37.9102 0,-23.9688 20.2295,-39.0996 45.7295,-39.0996 25.1602,0 41.8193,14.791 46.0693,30.9395 l -23.1191,9.3496 c -4.0801,-10.709 -11.7305,-17.3398 -23.46,-17.3398 -11.2197,0 -18.7002,5.9512 -18.7002,14.1113 0,10.709 12.4102,15.2988 22.9502,18.6992 l 13.9395,4.4199 c 12.0703,3.9102 33.1494,10.5391 33.1494,35.6992 0,23.9707 -18.8691,42.3301 -48.6191,42.3301 -25.8398,0 -46.2393,-13.9395 -52.5293,-39.2695 z"
         style="fill:#000000;fill-opacity:1"
         id="path21" /><path
         d="m 637.55325,727.7998 h 23.46 v 14.1113 h 0.3398 c 8.3301,-11.7305 18.3604,-16.8301 30.5996,-16.8301 25.8398,0 41.3096,22.4395 41.3096,49.8086 0,31.791 -20.5693,50.6602 -43.0098,50.6602 -14.2793,0 -23.6299,-7.3105 -28.8994,-15.1309 v 49.6406 h -23.7998 V 727.7997 Z m 47.2598,74.9707 c 13.9395,0 23.7998,-11.5605 23.7998,-27.3711 0,-16.1484 -10.0303,-27.5391 -23.7998,-27.5391 -13.7695,0 -23.9697,11.3906 -23.9697,27.5391 0,16.1485 10.2002,27.3711 23.9697,27.3711 z"
         style="fill:#000000;fill-opacity:1"
         id="path23" /><path
         d="m 762.84035,683.9405 c 8.3301,0 14.6201,6.6309 14.6201,14.4512 0,8.5 -6.29,15.1289 -14.6201,15.1289 -8.5,0 -14.79,-6.6289 -14.79,-15.1289 0,-7.8203 6.29,-14.4512 14.79,-14.4512 z m -12.0693,43.8594 h 23.7998 v 94.8594 h -23.7998 z"
         style="fill:#000000;fill-opacity:1"
         id="path25-7" /><path
         d="m 797.85985,727.7998 h 23.459 v 13.9414 h 0.3408 c 6.9697,-11.3906 17.8496,-16.6602 29.4092,-16.6602 17.50975,0 33.14935,11.9004 33.14935,37.7402 v 59.8379 h -23.7998 v -49.2988 c 0,-12.5801 -3.22945,-25.5 -17.84955,-25.5 -11.2197,0 -20.9092,7.8203 -20.9092,25.8398 v 48.959 h -23.7998 v -94.8594 z"
         style="fill:#000000;fill-opacity:1"
         id="path27-0" /><path
         d="m 900.7094,775.7393 c 0,-29.2383 19.7198,-50.6582 47.4298,-50.6582 23.6298,0 45.7294,15.6387 45.7294,50.4883 v 6.4609 h -69.3593 c 2.04,14.2793 12.75,22.0996 25.1592,22.0996 9.6904,0 18.0205,-5.2695 22.2705,-15.1289 l 22.2695,9.0098 c -6.2901,15.4688 -22.2695,27.5391 -44.3701,27.5391 -28.0488,0 -49.1289,-19.7207 -49.1289,-49.8105 z M 969.899,765.71 c -1.7002,-14.6191 -11.2197,-20.2285 -21.9298,-20.2285 -12.2401,0 -19.8905,8.3281 -22.2704,20.2285 z"
         style="fill:#000000;fill-opacity:1"
         id="path29-8" /><path
         d="m 1006.6186,756.5303 c 0,-40.7988 30.0899,-69.1895 67.1495,-69.1895 37.2295,0 66.9795,28.9004 66.9795,69.1895 0,40.1191 -29.5801,69.0195 -66.9795,69.0195 -36.8896,0 -67.1495,-28.2207 -67.1495,-69.0195 z m 67.3194,45.2188 c 22.7793,0 40.29,-19.209 40.29,-45.2188 0,-25.5 -17,-45.3887 -40.29,-45.3887 -22.9502,0 -40.7998,19.0391 -40.7998,45.3887 0,26.6895 18.1904,45.2188 40.7998,45.2188 z"
         style="fill:#000000;fill-opacity:1"
         id="path31-7" /><path
         d="m 1159.106,727.7998 h 23.46 v 14.1113 h 0.3397 c 8.3302,-11.7305 18.3605,-16.8301 30.5997,-16.8301 25.8398,0 41.3096,22.4395 41.3096,49.8086 0,31.791 -20.5693,50.6602 -43.0088,50.6602 -14.2803,0 -23.6299,-7.3105 -28.9004,-15.1309 v 49.6406 H 1159.106 V 727.7997 Z m 47.2598,74.9707 c 13.9403,0 23.7998,-11.5605 23.7998,-27.3711 0,-16.1484 -10.0303,-27.5391 -23.7998,-27.5391 -13.7695,0 -23.9697,11.3906 -23.9697,27.5391 0,16.1485 10.2002,27.3711 23.9697,27.3711 z"
         style="fill:#000000;fill-opacity:1"
         id="path33-4" /><path
         d="m 1279.4664,792.3994 v -43.0098 h -18.7002 v -21.5898 h 18.7002 v -26.8594 h 23.7988 v 26.8594 h 25.6699 v 21.5898 h -25.6699 v 34.5098 c 0,9.0098 0,20.0605 12.9199,20.0605 4.5908,0 9.0106,-1.3594 12.75,-3.4004 v 21.4199 c -4.7599,2.5508 -11.0499,3.5703 -17.6797,3.5703 -31.7891,0 -31.7891,-23.2891 -31.7891,-33.1504 z"
         style="fill:#000000;fill-opacity:1"
         id="path35-5" /></g></a></svg>
