<?xml version="1.0" encoding="UTF-8" standalone="no"?>
<!-- Created with Inkscape (http://www.inkscape.org/) -->

<svg
   width="520.32397mm"
   height="654.86572mm"
   viewBox="0 0 520.32397 654.86572"
   version="1.1"
   id="svg1"
   xml:space="preserve"
   inkscape:version="1.3.2 (091e20e, 2023-11-25, custom)"
   sodipodi:docname="Hertta_logov2.svg"
   xmlns:inkscape="http://www.inkscape.org/namespaces/inkscape"
   xmlns:sodipodi="http://sodipodi.sourceforge.net/DTD/sodipodi-0.dtd"
   xmlns="http://www.w3.org/2000/svg"
   xmlns:svg="http://www.w3.org/2000/svg"><sodipodi:namedview
     id="namedview1"
     pagecolor="#ffffff"
     bordercolor="#000000"
     borderopacity="0.25"
     inkscape:showpageshadow="2"
     inkscape:pageopacity="0.0"
     inkscape:pagecheckerboard="0"
     inkscape:deskcolor="#d1d1d1"
     inkscape:document-units="mm"
     inkscape:zoom="0.17039557"
     inkscape:cx="953.66331"
     inkscape:cy="1698.9879"
     inkscape:window-width="2400"
     inkscape:window-height="1271"
     inkscape:window-x="2391"
     inkscape:window-y="201"
     inkscape:window-maximized="1"
     inkscape:current-layer="layer1" /><defs
     id="defs1" /><g
     inkscape:label="Layer 1"
     inkscape:groupmode="layer"
     id="layer1"
     transform="translate(-686.87308,-223.61629)"><rect
       style="fill:#ffda9b;fill-opacity:1;stroke:none;stroke-width:0.23636;stroke-linejoin:round;stroke-opacity:1"
       id="rect2-3"
       width="91.612808"
       height="176.82048"
       x="987.36096"
       y="470.0979" /><rect
       style="fill:#ffda9b;fill-opacity:1;stroke:none;stroke-width:0.23204;stroke-linejoin:round;stroke-opacity:1"
       id="rect2-7"
       width="91.612808"
       height="170.41534"
       x="878.71655"
       y="523.48755" /><rect
       style="fill:#ffda9b;fill-opacity:1;stroke:none;stroke-width:0.23204;stroke-linejoin:round;stroke-opacity:1"
       id="rect2"
       width="91.612808"
       height="170.41534"
       x="769.00415"
       y="470.0979" /><path
       id="path1"
       style="fill:#fac700;fill-opacity:1;stroke:none;stroke-width:0.2696;stroke-linejoin:round"
       d="M 933.20824,223.61629 A 239.49434,239.49434 0 0 0 693.71384,463.11072 239.49434,239.49434 0 0 0 933.20824,702.60463 239.49434,239.49434 0 0 0 1172.7026,463.11072 239.49434,239.49434 0 0 0 933.20824,223.61629 Z m 0,26.76994 A 212.72432,212.72432 0 0 1 1145.9327,463.11072 212.72432,212.72432 0 0 1 933.20824,675.83468 212.72432,212.72432 0 0 1 720.48374,463.11072 212.72432,212.72432 0 0 1 933.20824,250.38623 Z" /><path
       id="path1-4"
       style="fill:#ffda9b;fill-opacity:1;stroke:none;stroke-width:0.241633;stroke-linejoin:round;stroke-opacity:1"
       d="M 933.20824,248.46042 A 214.6502,214.6502 0 0 0 718.55804,463.11069 214.6502,214.6502 0 0 0 933.20824,677.7605 214.6502,214.6502 0 0 0 1147.8584,463.11069 214.6502,214.6502 0 0 0 933.20824,248.46042 Z m 0,23.99293 A 190.65719,190.65719 0 0 1 1123.8654,463.11069 190.65719,190.65719 0 0 1 933.20824,653.76756 190.65719,190.65719 0 0 1 742.55094,463.11069 190.65719,190.65719 0 0 1 933.20824,272.45335 Z" /><path
       style="fill:#fac700;fill-opacity:1;stroke:none;stroke-width:0.23204;stroke-linejoin:round;stroke-opacity:1"
       d="M 770.70264,452.04708 H 1078.3431 L 924.42584,329.96137 Z"
       id="path3" /><g
       style="clip-rule:evenodd;fill-rule:evenodd;image-rendering:optimizeQuality;shape-rendering:geometricPrecision;text-rendering:geometricPrecision"
       id="g4"
       transform="matrix(0.26458333,0,0,0.26458333,389.67212,493.04703)"><g
         id="g1"><path
           fill="#000000"
           d="m 2021.4834,-58.951689 c 5.4551,-10.541462 10.9838,-18.502844 17.7657,-24.031583 7.2979,-5.823605 15.9965,-8.698548 27.57,-8.698548 12.8267,0 24.4002,5.160156 32.8038,13.563838 8.4037,8.403682 13.5639,19.977174 13.5639,32.803846 0,45.77795203 -45.4831,67.376889 -90.9662,112.859975 -0.4423,0.442299 -1.032,0.442299 -1.4743,0 -45.4831,-45.483086 -90.9662,-67.08202297 -90.9662,-112.859975 0,-12.826672 5.1602,-24.400164 13.5638,-32.803846 8.4037,-8.403682 19.9772,-13.563838 32.8039,-13.563838 22.5572,0 34.1307,10.910043 45.3356,32.730131 z"
           id="path1-3"
           sodipodi:nodetypes="ccssssssssc"
           style="fill:#ffcc00;fill-opacity:1;stroke-width:7.37165" /></g></g><text
       xml:space="preserve"
       style="font-weight:bold;font-size:175.082px;font-family:Gadugi;-inkscape-font-specification:'Gadugi, Bold';letter-spacing:2.02706px;fill:#000000;stroke-width:0.846539;stroke-linejoin:round"
       x="676.36816"
       y="876.20593"
       id="text1"><tspan
         sodipodi:role="line"
         id="tspan1"
         style="font-style:normal;font-variant:normal;font-weight:bold;font-stretch:normal;font-size:175.082px;font-family:'MADE TOMMY';-inkscape-font-specification:'MADE TOMMY, Bold';font-variant-ligatures:normal;font-variant-caps:normal;font-variant-numeric:normal;font-variant-east-asian:normal;stroke-width:0.846539"
         x="676.36816"
         y="876.20593">Hertta</tspan></text></g></svg>
