<?xml version="1.0" encoding="UTF-8" standalone="no"?>
<svg
   id="Livello_1"
   width="1020.094"
   height="313.11041"
   viewBox="0 0 1020.094 313.11042"
   version="1.1"
   sodipodi:docname="Logo_FlexTool.svg"
   inkscape:version="1.3.2 (091e20e, 2023-11-25, custom)"
   xml:space="preserve"
   xmlns:inkscape="http://www.inkscape.org/namespaces/inkscape"
   xmlns:sodipodi="http://sodipodi.sourceforge.net/DTD/sodipodi-0.dtd"
   xmlns="http://www.w3.org/2000/svg"
   xmlns:svg="http://www.w3.org/2000/svg"><sodipodi:namedview
     id="namedview50"
     pagecolor="#ffffff"
     bordercolor="#000000"
     borderopacity="0.25"
     inkscape:showpageshadow="2"
     inkscape:pageopacity="0.0"
     inkscape:pagecheckerboard="0"
     inkscape:deskcolor="#d1d1d1"
     showgrid="false"
     inkscape:zoom="0.50000001"
     inkscape:cx="487.99999"
     inkscape:cy="350.99999"
     inkscape:window-width="1920"
     inkscape:window-height="1017"
     inkscape:window-x="1912"
     inkscape:window-y="160"
     inkscape:window-maximized="1"
     inkscape:current-layer="layer1" /><defs
     id="defs5"><clipPath
       id="clippath"><path
         d="M 438.4697,442.0799 H 216.8471 V 48.0842 c 0,0 221.6226,0 221.6226,0 z m 263.0003,0 H 479.8474 V 144.5125 c 0,0 221.6226,0 221.6226,0 z m 263.0003,0 H 742.8477 V 48.0842 c 0,0 221.6226,0 221.6226,0 z"
         style="fill:none"
         id="path2" /></clipPath><clipPath
       id="clippath-1"><path
         d="M 438.4697,442.0799 H 216.8471 V 48.0842 c 0,0 221.6226,0 221.6226,0 z m 263.0003,0 H 479.8474 V 144.5125 c 0,0 221.6226,0 221.6226,0 z m 263.0003,0 H 742.8477 V 48.0842 c 0,0 221.6226,0 221.6226,0 z"
         style="fill:none"
         id="path2-8" /></clipPath><clipPath
       id="clippath-4"><path
         d="M 438.4697,442.0799 H 216.8471 V 48.0842 c 0,0 221.6226,0 221.6226,0 z m 263.0003,0 H 479.8474 V 144.5125 c 0,0 221.6226,0 221.6226,0 z m 263.0003,0 H 742.8477 V 48.0842 c 0,0 221.6226,0 221.6226,0 z"
         style="fill:none"
         id="path2-0" /></clipPath></defs><g
     inkscape:groupmode="layer"
     id="layer1"
     inkscape:label="Spine_Logo"
     style="display:inline"
     transform="translate(-452.95302,-386.10498)"><path
       d="m 453.31181,476.96438 h 17.86856 v -90.8594 h -17.86856 z"
       style="font-size:15.4249px;line-height:1.25;font-family:'ITC Avant Garde Gothic Std';-inkscape-font-specification:'ITC Avant Garde Gothic Std';stroke-width:9.10087"
       id="path11341" /><path
       d="m 487.48994,476.96438 h 17.86856 v -74.77483 h 10.43332 c 5.03678,0 9.35401,0.7367 12.59193,2.82401 3.95747,2.57844 6.59578,7.61255 6.59578,13.13778 0,5.52524 -2.15861,10.31377 -5.63639,13.26056 -3.71762,2.94679 -10.07355,3.31514 -15.94978,3.31514 h -3.47778 l 23.86472,42.23734 h 18.70802 l -19.78733,-33.64253 c 5.75631,-1.4734 10.79309,-4.05184 14.63064,-9.82264 2.99807,-4.42019 4.79692,-10.31377 4.79692,-16.94405 0,-10.0682 -3.95746,-19.27693 -11.27278,-24.67937 -4.79693,-3.56072 -12.71186,-5.77081 -26.50303,-5.77081 h -26.8628 z"
       style="font-size:15.4249px;line-height:1.25;font-family:'ITC Avant Garde Gothic Std';-inkscape-font-specification:'ITC Avant Garde Gothic Std';stroke-width:9.10087"
       id="path11343" /><path
       d="m 563.16151,476.96438 h 49.76813 v -16.08457 h -31.89957 v -21.97815 h 31.29996 v -16.08457 h -31.29996 v -20.62754 h 31.89957 v -16.08457 h -49.76813 z"
       style="font-size:15.4249px;line-height:1.25;font-family:'ITC Avant Garde Gothic Std';-inkscape-font-specification:'ITC Avant Garde Gothic Std';stroke-width:9.10087"
       id="path11345" /><path
       d="M 643.03048,386.10498 H 627.0807 v 90.8594 h 17.14901 l -0.35973,-62.86488 40.89382,62.86488 h 15.82985 v -90.8594 h -17.14901 l 0.35973,62.98767 z"
       style="font-size:15.4249px;line-height:1.25;font-family:'ITC Avant Garde Gothic Std';-inkscape-font-specification:'ITC Avant Garde Gothic Std';stroke-width:9.10087"
       id="path11347" /><path
       d="m 735.85102,459.16086 h 35.01757 l 6.47586,17.80352 h 19.54749 l -35.13751,-90.8594 h -15.70994 l -35.97696,90.8594 h 19.42756 z m 30.22065,-14.61118 h -25.54364 l 12.59193,-36.83489 z"
       style="font-size:15.4249px;line-height:1.25;font-family:'ITC Avant Garde Gothic Std';-inkscape-font-specification:'ITC Avant Garde Gothic Std';stroke-width:9.10087"
       id="path11349" /><path
       d="m 452.95302,693.31479 h 45.62422 v -67.20378 h 75.02903 v -33.77296 h -75.02903 v -36.83772 h 85.83599 V 520.65098 H 452.95302 Z"
       style="font-size:33.765px;line-height:1.25;font-family:'ITC Avant Garde Gothic Std';-inkscape-font-specification:'ITC Avant Garde Gothic Std';fill:#029ff0;fill-opacity:1;stroke-width:19.9217"
       id="path402"
       sodipodi:nodetypes="ccccccccccc" /><path
       id="rect554"
       style="fill:#029ff0;stroke-width:2.10208"
       d="m 612.10706,521.81315 h 38.74933 v 172.21922 h -38.74933 z" /><path
       id="rect554-4"
       style="fill:#029ff0;stroke-width:2.10208"
       d="m 1434.2976,519.29013 h 38.7494 v 172.21923 h -38.7494 z" /><path
       style="fill:#029ff0;fill-opacity:1;stroke:none;stroke-width:2.08142px;stroke-linecap:butt;stroke-linejoin:miter;stroke-opacity:1"
       d="m 819.48775,560.92126 h 39.82568 l 25.1153,38.74932 25.47411,-38.74932 h 40.54327 l -47.00149,64.94101 47.00149,68.1701 h -39.4669 l -26.90927,-40.18449 -26.19165,40.18449 h -40.90208 l 47.36027,-66.73495 z"
       id="path4012" /><path
       style="fill:#029ff0;fill-opacity:1;stroke:none;stroke-width:2.08142px;stroke-linecap:butt;stroke-linejoin:miter;stroke-opacity:1"
       d="M 1017.5399,692.95599 V 554.82182 H 964.43891 V 521.09555 H 1107.955 v 34.80264 h -52.7422 v 137.4166 z"
       id="path4740"
       sodipodi:nodetypes="ccccccccc" /><path
       id="path4796"
       style="fill:#029ff0;fill-opacity:1;stroke:none;stroke-width:2.54088;stroke-opacity:1"
       d="m 1223.6094,516.95703 c 0.032,0.42221 0.057,0.84439 0.057,1.26758 -8e-4,10.99769 -10.3634,19.91292 -23.1445,19.91211 -12.7614,-0.003 -23.1107,-8.89433 -23.1348,-19.875 -8.5791,2.46396 -16.7596,6.15058 -24.2871,10.94726 7.694,7.79589 6.6394,21.36186 -2.3613,30.36329 -8.5178,8.48111 -21.2012,9.9348 -29.1895,3.3457 -4.2052,7.66463 -7.3066,15.88433 -9.2148,24.41601 10.5312,0.70895 18.7578,10.8402 18.7598,23.09961 -0.01,11.60746 -7.4101,21.41287 -17.3126,22.92774 2.3379,8.09785 5.7663,15.84018 10.1915,23.01367 6.9164,-6.04358 17.9955,-6.32779 26.9277,-0.69141 10.7966,6.83917 14.7785,19.91449 8.8945,29.20508 -0.7983,1.22463 -1.7515,2.34416 -2.8418,3.33789 7.5793,4.33469 15.7337,7.5794 24.2188,9.63867 0.1864,-10.87369 10.4749,-19.60773 23.1133,-19.61914 12.3589,-10e-4 22.5402,8.35381 23.121,18.97657 8.4067,-2.29136 16.4484,-5.75356 23.8907,-10.28516 -0.8688,-0.73869 -1.6585,-1.55738 -2.3614,-2.44727 -6.1642,-8.01539 -4.3718,-20.12998 4.17,-28.17187 0.016,0.0236 0.024,0.0389 0.039,0.0625 3.488,-3.34454 8.1647,-5.0581 13.1114,-5.1582 -8.4158,-10.85795 -15.6678,-22.10251 -18.2579,-34.90235 -3.8295,22.63164 -23.4274,39.20099 -46.3808,39.20899 -25.9915,-0.001 -47.0606,-21.07304 -47.0606,-47.06446 0,-25.98981 21.0707,-47.05759 47.0606,-47.05859 15.7505,3e-4 30.9941,7.16207 39.7187,20.27539 8.4713,8.85157 12.4408,17.57529 15.7149,37.3125 3.1464,11.1532 8.5624,22.49635 19.4062,34.29102 1.7648,0.76414 3.4867,1.72951 5.1172,2.91796 10.3253,7.53444 13.4397,20.84503 6.9551,29.72852 -0.6789,0.90846 -1.4482,1.74614 -2.2969,2.50781 7.5612,4.33036 15.6951,7.57746 24.1602,9.64258 0.2958,-10.63448 10.2489,-19.25975 22.6035,-19.58984 12.6341,-0.32726 23.1534,8.12736 23.6309,18.99219 8.4265,-2.2861 16.4888,-5.74887 23.9492,-10.28516 -1.1165,-0.96408 -2.0969,-2.05701 -2.9278,-3.25977 -6.131,-9.12948 -2.5038,-22.30542 8.1055,-29.43164 8.7778,-5.87428 19.8613,-5.88999 26.9375,-0.0332 4.2312,-7.28952 7.4544,-15.11975 9.5742,-23.27734 -9.9394,-1.24885 -17.6059,-10.85396 -17.9238,-22.45704 -0.3264,-12.25504 7.6264,-22.59876 18.1348,-23.58984 -2.1362,-8.47744 -5.458,-16.61494 -9.8672,-24.16406 -7.8087,6.80093 -20.5273,5.68912 -29.2696,-2.56055 -9.2385,-8.75684 -10.658,-22.28776 -3.1757,-30.28711 -7.6535,-4.59312 -15.9284,-8.05993 -24.5703,-10.29297 0.2704,10.97736 -9.837,20.14308 -22.5938,20.48828 -12.7764,0.34354 -23.3722,-8.29144 -23.668,-19.28515 -0.01,-0.42315 3e-4,-0.84466 0.023,-1.26758 -8.16,2.08483 -25.757,1.63213 -22.8809,9.21484 2.6899,7.09163 8.7821,27.82783 -18.3047,37.30274 8.2849,10.80446 16.3614,24.26171 18.9082,36.84765 3.8297,-22.63165 23.4275,-39.19878 46.3809,-39.20898 25.9915,10e-4 47.0596,21.07303 47.0586,47.06445 0,25.98985 -21.0687,47.0576 -47.0586,47.0586 -15.7505,-3.2e-4 -30.9961,-7.16208 -39.7207,-20.27539 -8.4713,-8.85159 -12.4408,-17.57527 -15.7149,-37.3125 -2.7768,-9.84338 -11.2559,-25.65316 -20.8027,-37.54883 -13.1259,-10.10249 -18.8153,-15.49306 -10.4883,-35.32813 3.1831,-7.58214 -15.0211,-6.78912 -23.1133,-8.63672 z" /><path
       id="path5989"
       style="fill:#016aa2;stroke-width:2.0847"
       d="m 1216.7989,608.31414 a 14.598158,14.598158 0 0 1 -14.5982,14.59816 14.598158,14.598158 0 0 1 -14.5981,-14.59816 14.598158,14.598158 0 0 1 14.5981,-14.59816 14.598158,14.598158 0 0 1 14.5982,14.59816 z" /><path
       id="path5989-1"
       style="fill:#016aa2;stroke-width:2.0847"
       d="m 1347.1557,608.99913 a 14.598158,14.598158 0 0 1 -14.5982,14.59817 14.598158,14.598158 0 0 1 -14.5981,-14.59817 14.598158,14.598158 0 0 1 14.5981,-14.59815 14.598158,14.598158 0 0 1 14.5982,14.59815 z" /><path
       d="m 780.52172,653.03142 21.32662,16.96273 c -11.59916,19.47248 -34.76481,29.03115 -55.09966,29.22124 -20.05767,0 -35.98328,-6.15504 -47.77684,-18.46511 -11.70748,-12.39615 -19.89336,-29.74216 -19.89336,-52.03802 0,-23.07062 6.11922,-40.97618 17.99887,-53.71666 11.87964,-12.7405 27.28875,-19.11074 46.22732,-19.11074 18.33598,0 33.31467,6.24112 44.93606,18.72335 11.62139,12.48224 19.58483,30.04346 19.58483,52.68366 0,1.37735 -0.0433,10.61918 -0.12909,13.37387 l -92.22218,-0.17939 c 0.46713,7.06813 7.77942,27.18583 31.40351,26.16367 16.5774,-0.0779 22.62083,-3.05247 33.64392,-13.6186 z m -63.57677,-37.39645 h 56.12104 c -4.97812,-13.00493 -12.05696,-25.01458 -29.50307,-25.2114 -17.90738,0.0645 -26.06205,16.86556 -26.61797,25.2114 z"
       style="font-size:33.6161px;line-height:1.25;font-family:Arial;-inkscape-font-specification:Arial;fill:#029ff0;fill-opacity:1;stroke-width:19.8339"
       id="path7523"
       sodipodi:nodetypes="ccccssssscccccccc" /></g></svg>
