<?xml version="1.0" encoding="UTF-8" standalone="no"?>
<svg
   id="Livello_1"
   width="1185.3994"
   height="670.63837"
   viewBox="0 0 1185.3994 670.63837"
   version="1.1"
   sodipodi:docname="MOPO_logo_spinetoolbox.svg"
   inkscape:version="1.2.2 (732a01da63, 2022-12-09)"
   inkscape:export-filename="MOPO_logo_spinetoolbox.png"
   inkscape:export-xdpi="96"
   inkscape:export-ydpi="96"
   xmlns:inkscape="http://www.inkscape.org/namespaces/inkscape"
   xmlns:sodipodi="http://sodipodi.sourceforge.net/DTD/sodipodi-0.dtd"
   xmlns="http://www.w3.org/2000/svg"
   xmlns:svg="http://www.w3.org/2000/svg">
  <sodipodi:namedview
     id="namedview50"
     pagecolor="#ffffff"
     bordercolor="#000000"
     borderopacity="0.25"
     inkscape:showpageshadow="2"
     inkscape:pageopacity="0.0"
     inkscape:pagecheckerboard="0"
     inkscape:deskcolor="#d1d1d1"
     showgrid="false"
     inkscape:zoom="0.5"
     inkscape:cx="601"
     inkscape:cy="314"
     inkscape:window-width="1920"
     inkscape:window-height="1017"
     inkscape:window-x="1912"
     inkscape:window-y="108"
     inkscape:window-maximized="1"
     inkscape:current-layer="layer1" />
  <defs
     id="defs5">
    <clipPath
       id="clippath">
      <path
         d="M 438.4697,442.0799 H 216.8471 V 48.0842 c 0,0 221.6226,0 221.6226,0 z m 263.0003,0 H 479.8474 V 144.5125 c 0,0 221.6226,0 221.6226,0 z m 263.0003,0 H 742.8477 V 48.0842 c 0,0 221.6226,0 221.6226,0 z"
         style="fill:none"
         id="path2" />
    </clipPath>
    <clipPath
       id="clippath-1">
      <path
         d="M 438.4697,442.0799 H 216.8471 V 48.0842 c 0,0 221.6226,0 221.6226,0 z m 263.0003,0 H 479.8474 V 144.5125 c 0,0 221.6226,0 221.6226,0 z m 263.0003,0 H 742.8477 V 48.0842 c 0,0 221.6226,0 221.6226,0 z"
         style="fill:none"
         id="path2-8" />
    </clipPath>
    <clipPath
       id="clippath-4">
      <path
         d="M 438.4697,442.0799 H 216.8471 V 48.0842 c 0,0 221.6226,0 221.6226,0 z m 263.0003,0 H 479.8474 V 144.5125 c 0,0 221.6226,0 221.6226,0 z m 263.0003,0 H 742.8477 V 48.0842 c 0,0 221.6226,0 221.6226,0 z"
         style="fill:none"
         id="path2-0" />
    </clipPath>
  </defs>
  <g
     inkscape:groupmode="layer"
     id="layer1"
     inkscape:label="Spine_Logo"
     style="display:inline"
     transform="translate(-338,-190.49114)">
    <rect
       style="fill:#1b4ac2;fill-opacity:1"
       id="rect415"
       width="220.98103"
       height="393.47098"
       x="216.82468"
       y="48.491138"
       clip-path="url(#clippath)"
       transform="translate(338,142)" />
    <rect
       style="fill:#1b4ac2;fill-opacity:1"
       id="rect415-9"
       width="220.98103"
       height="393.47098"
       x="216.82468"
       y="48.491138"
       clip-path="url(#clippath-1)"
       transform="matrix(1,0,0,0.75880283,601.22639,249.29273)" />
    <rect
       style="fill:#1b4ac2;fill-opacity:1"
       id="rect415-7"
       width="220.98103"
       height="393.47098"
       x="216.82468"
       y="48.491138"
       clip-path="url(#clippath-4)"
       transform="translate(863.4249,142)" />
    <circle
       style="fill:#91e087;fill-opacity:1;stroke-width:0.975"
       id="path1386"
       cx="665.66156"
       cy="298.55713"
       r="54.032986" />
    <circle
       style="fill:#91e087;fill-opacity:1;stroke-width:0.975"
       id="path1386-6"
       cx="930.97736"
       cy="483.51614"
       r="54.032986" />
    <circle
       style="fill:#91e087;fill-opacity:1;stroke-width:0.975"
       id="path1386-9"
       cx="1196.2932"
       cy="299.17163"
       r="54.032986" />
    <path
       style="fill:#91e087;fill-opacity:1"
       d="m 554.75175,369.03828 v 18.12387 l 73.96501,-54.12671 -9.30686,-11.51111 z"
       id="path1671" />
    <path
       style="display:inline;fill:#91e087;fill-opacity:1"
       d="m 1080.9563,373.77682 v 18.12387 l 79.4451,-58.36935 -8.5998,-11.51111 z"
       id="path1671-6"
       sodipodi:nodetypes="ccccc" />
    <path
       style="display:inline;fill:#91e087;fill-opacity:1"
       d="m 973.19142,452.25327 7.60416,12.57102 58.66122,-42.69931 -0.01,-18.26111 z"
       id="path1671-6-4"
       sodipodi:nodetypes="ccccc" />
    <path
       style="fill:#91e087;fill-opacity:1"
       d="m 776.46863,385.23406 -0.003,-18.08443 -63.24346,-45.84258 -8.39543,11.3398 z"
       id="path1671-4"
       sodipodi:nodetypes="ccccc" />
    <path
       style="fill:#91e087;fill-opacity:1"
       d="m 881.38115,461.84972 7.52043,-12.58443 -71.06377,-51.82695 0.0108,18.01167 z"
       id="path1671-4-5"
       sodipodi:nodetypes="ccccc" />
    <path
       style="display:inline;fill:#91e087;fill-opacity:1"
       d="m 1302.4747,380.4602 v -18.02062 l -57.2752,-41.83906 -7.332,12.69044 z"
       id="path1671-4-5-5"
       sodipodi:nodetypes="ccccc" />
  </g>
  <path
     d="m 0,596.85906 23.6299,-7.9902 c 5.1001,18.6992 17.1699,24.3105 28.5596,24.3105 11.73,0 22.1001,-5.6113 22.1001,-16.3203 0,-11.2207 -11.2202,-14.791 -22.4399,-18.3594 l -11.8999,-3.5703 c -13.0898,-3.9102 -35.3594,-12.75 -35.3594,-37.9102 0,-23.9688 20.2295,-39.0996 45.7295,-39.0996 25.1597,0 41.8193,14.791 46.0693,30.9395 l -23.1196,9.3496 c -4.0801,-10.709 -11.73,-17.3398 -23.46,-17.3398 -11.2197,0 -18.6997,5.9512 -18.6997,14.1113 0,10.709 12.4097,15.2988 22.9497,18.6992 l 13.9399,4.4199 c 12.0698,3.9102 33.1494,10.5391 33.1494,35.6992 0,23.9707 -18.8696,42.3301 -48.6191,42.3301 -25.8398,0 -46.2397,-13.9395 -52.5298,-39.2695 z"
     style="display:inline;fill:#000000;fill-opacity:1"
     id="path25" />
  <path
     d="m 118.4888,538.37866 h 23.4595 v 14.1113 h 0.3403 c 8.3296,-11.7305 18.3599,-16.8301 30.5996,-16.8301 25.8398,0 41.3096,22.4395 41.3096,49.8086 0,31.791 -20.5698,50.6602 -43.0098,50.6602 -14.2798,0 -23.6294,-7.3105 -28.8994,-15.1309 v 49.6406 h -23.7998 v -132.2598 z m 47.2593,74.9707 c 13.9399,0 23.7998,-11.5605 23.7998,-27.3711 0,-16.1484 -10.0298,-27.5391 -23.7998,-27.5391 -13.77,0 -23.9697,11.3906 -23.9697,27.5391 0,16.1485 10.2002,27.3711 23.9697,27.3711 z"
     style="fill:#000000;fill-opacity:1"
     id="path27" />
  <path
     d="m 243.7759,494.51926 c 8.3301,0 14.6196,6.6309 14.6196,14.4512 0,8.5 -6.2896,15.1289 -14.6196,15.1289 -8.5,0 -14.79,-6.6289 -14.79,-15.1289 0,-7.8203 6.29,-14.4512 14.79,-14.4512 z m -12.0698,43.8594 h 23.7998 v 94.8594 h -23.7998 z"
     style="fill:#000000;fill-opacity:1"
     id="path29" />
  <path
     d="m 278.7949,538.37866 h 23.4595 v 13.9414 h 0.3403 c 6.9697,-11.3906 17.8496,-16.6602 29.4097,-16.6602 17.5098,0 33.1494,11.9004 33.1494,37.7402 v 59.8379 H 341.354 v -49.2988 c 0,-12.5801 -3.23,-25.5 -17.8496,-25.5 -11.2197,0 -20.9097,7.8203 -20.9097,25.8398 v 48.959 h -23.7998 v -94.8594 z"
     style="fill:#000000;fill-opacity:1"
     id="path31" />
  <path
     d="m 381.6445,586.31806 c 0,-29.2383 19.7197,-50.6582 47.4297,-50.6582 23.6299,0 45.7295,15.6387 45.7295,50.4883 v 6.4609 h -69.3594 c 2.04,14.2793 12.75,22.0996 25.1597,22.0996 9.6899,0 18.02,-5.2695 22.27,-15.1289 l 22.2695,9.0098 c -6.29,15.4688 -22.2695,27.5391 -44.3696,27.5391 -28.0493,0 -49.1294,-19.7207 -49.1294,-49.8105 z m 69.1895,-10.0293 c -1.7002,-14.6191 -11.2197,-20.2285 -21.9297,-20.2285 -12.2402,0 -19.8901,8.3281 -22.27,20.2285 z"
     style="fill:#000000;fill-opacity:1"
     id="path33" />
  <path
     d="m 518.3247,523.92946 v -23.2891 h 104.7188 v 23.2891 h -39.7793 v 109.3086 h -25.1597 v -109.3086 z"
     style="fill:#000000;fill-opacity:1"
     id="path35" />
  <path
     d="m 611.8257,585.97826 c 0,-29.4082 20.0601,-50.3184 48.9595,-50.3184 28.8994,0 48.96,20.9102 48.96,50.3184 0,29.5801 -20.0605,50.1504 -48.96,50.1504 -28.8995,0 -48.9595,-20.5703 -48.9595,-50.1504 z m 48.9595,27.3711 c 14.2803,0 24.1396,-11.3906 24.1396,-27.3711 0,-16.3184 -9.8594,-27.5391 -24.1396,-27.5391 -14.2802,0 -24.3096,11.3906 -24.3096,27.5391 0,15.9805 10.0298,27.3711 24.3096,27.3711 z"
     style="fill:#000000;fill-opacity:1"
     id="path37" />
  <path
     d="m 721.1338,585.97826 c 0,-29.4082 20.0596,-50.3184 48.959,-50.3184 28.8994,0 48.96,20.9102 48.96,50.3184 0,29.5801 -20.0605,50.1504 -48.96,50.1504 -28.8995,0 -48.959,-20.5703 -48.959,-50.1504 z m 48.959,27.3711 c 14.2803,0 24.1396,-11.3906 24.1396,-27.3711 0,-16.3184 -9.8594,-27.5391 -24.1396,-27.5391 -14.2802,0 -24.3096,11.3906 -24.3096,27.5391 0,15.9805 10.0303,27.3711 24.3096,27.3711 z"
     style="fill:#000000;fill-opacity:1"
     id="path39" />
  <path
     d="m 836.3916,497.23996 h 23.7998 v 135.998 h -23.7998 z"
     style="fill:#000000;fill-opacity:1"
     id="path41" />
  <path
     d="m 907.2803,620.65796 h -0.3398 v 12.5801 h -23.46 v -135.998 h 23.7998 v 54.7402 c 7.6504,-11.2207 18.1904,-16.3203 30.5996,-16.3203 25.8398,0 41.3096,22.4395 41.3096,49.9785 0,31.6211 -20.5693,50.4902 -43.0088,50.4902 -13.7705,0 -23.6299,-6.9707 -28.9004,-15.4707 z m 23.46,-7.3086 c 13.9404,0 23.7998,-11.3906 23.7998,-27.3711 0,-15.8086 -9.6895,-27.5391 -23.7998,-27.5391 -14.1103,0 -23.9697,11.5605 -23.9697,27.5391 0,16.1504 10.2002,27.3711 23.9697,27.3711 z"
     style="fill:#000000;fill-opacity:1"
     id="path43" />
  <path
     d="m 990.749,585.97826 c 0,-29.4082 20.0596,-50.3184 48.959,-50.3184 28.8994,0 48.96,20.9102 48.96,50.3184 0,29.5801 -20.0605,50.1504 -48.96,50.1504 -28.8995,0 -48.959,-20.5703 -48.959,-50.1504 z m 48.959,27.3711 c 14.2803,0 24.1396,-11.3906 24.1396,-27.3711 0,-16.3184 -9.8594,-27.5391 -24.1396,-27.5391 -14.2802,0 -24.3096,11.3906 -24.3096,27.5391 0,15.9805 10.0303,27.3711 24.3096,27.3711 z"
     style="fill:#000000;fill-opacity:1"
     id="path45" />
  <path
     d="m 1122.1602,585.12866 v -0.1699 l -30.6006,-46.5801 h 27.54 l 19.21,31.6211 h 0.3398 c 6.46,-10.7109 12.9199,-21.0801 19.3799,-31.6211 h 26.8594 c -10.1992,15.4707 -20.2295,31.1113 -30.4297,46.5801 v 0.1699 c 10.3701,15.9805 20.5703,32.1309 30.9404,48.1094 h -27.2002 c -6.46,-10.5391 -12.9199,-20.9102 -19.5498,-31.4492 h -0.3398 l -19.21,31.4492 h -27.8799 c 10.3701,-15.9785 20.5703,-32.1289 30.9404,-48.1094 z"
     style="fill:#000000;fill-opacity:1"
     id="path47" />
</svg>
